<svg id="visual" viewBox="0 0 900 900" width="900" height="900" xmlns="http://www.w3.org/2000/svg" xmlns:xlink="http://www.w3.org/1999/xlink" version="1.1"><rect x="0" y="0" width="900" height="900" fill="#49C3EE"></rect><defs><linearGradient id="grad1_0" x1="0%" y1="0%" x2="100%" y2="100%"><stop offset="30%" stop-color="#6e87d6" stop-opacity="1"></stop><stop offset="70%" stop-color="#6e87d6" stop-opacity="1"></stop></linearGradient></defs><defs><linearGradient id="grad1_1" x1="0%" y1="0%" x2="100%" y2="100%"><stop offset="30%" stop-color="#6e87d6" stop-opacity="1"></stop><stop offset="70%" stop-color="#5e97e1" stop-opacity="1"></stop></linearGradient></defs><defs><linearGradient id="grad1_2" x1="0%" y1="0%" x2="100%" y2="100%"><stop offset="30%" stop-color="#4fa7e8" stop-opacity="1"></stop><stop offset="70%" stop-color="#5e97e1" stop-opacity="1"></stop></linearGradient></defs><defs><linearGradient id="grad1_3" x1="0%" y1="0%" x2="100%" y2="100%"><stop offset="30%" stop-color="#4fa7e8" stop-opacity="1"></stop><stop offset="70%" stop-color="#47b5ec" stop-opacity="1"></stop></linearGradient></defs><defs><linearGradient id="grad1_4" x1="0%" y1="0%" x2="100%" y2="100%"><stop offset="30%" stop-color="#49c3ee" stop-opacity="1"></stop><stop offset="70%" stop-color="#47b5ec" stop-opacity="1"></stop></linearGradient></defs><defs><linearGradient id="grad2_0" x1="0%" y1="0%" x2="100%" y2="100%"><stop offset="30%" stop-color="#6e87d6" stop-opacity="1"></stop><stop offset="70%" stop-color="#6e87d6" stop-opacity="1"></stop></linearGradient></defs><defs><linearGradient id="grad2_1" x1="0%" y1="0%" x2="100%" y2="100%"><stop offset="30%" stop-color="#5e97e1" stop-opacity="1"></stop><stop offset="70%" stop-color="#6e87d6" stop-opacity="1"></stop></linearGradient></defs><defs><linearGradient id="grad2_2" x1="0%" y1="0%" x2="100%" y2="100%"><stop offset="30%" stop-color="#5e97e1" stop-opacity="1"></stop><stop offset="70%" stop-color="#4fa7e8" stop-opacity="1"></stop></linearGradient></defs><defs><linearGradient id="grad2_3" x1="0%" y1="0%" x2="100%" y2="100%"><stop offset="30%" stop-color="#47b5ec" stop-opacity="1"></stop><stop offset="70%" stop-color="#4fa7e8" stop-opacity="1"></stop></linearGradient></defs><defs><linearGradient id="grad2_4" x1="0%" y1="0%" x2="100%" y2="100%"><stop offset="30%" stop-color="#47b5ec" stop-opacity="1"></stop><stop offset="70%" stop-color="#49c3ee" stop-opacity="1"></stop></linearGradient></defs><g transform="translate(900, 0)"><path d="M0 477.3C-38.1 434.1 -76.2 390.9 -121.1 372.8C-166 354.7 -217.7 361.7 -246.3 339C-274.9 316.2 -280.3 263.8 -317.1 230.4C-353.9 197 -422 182.7 -453.9 147.5C-485.8 112.3 -481.6 56.1 -477.3 0L0 0Z" fill="#46bced"></path><path d="M0 381.8C-30.5 347.3 -61 312.7 -96.9 298.3C-132.8 283.8 -174.2 289.4 -197 271.2C-219.9 253 -224.3 211 -253.7 184.3C-283.1 157.6 -337.6 146.2 -363.1 118C-388.7 89.8 -385.3 44.9 -381.8 0L0 0Z" fill="#4aaeeb"></path><path d="M0 286.4C-22.9 260.5 -45.7 234.5 -72.7 223.7C-99.6 212.8 -130.6 217 -147.8 203.4C-164.9 189.7 -168.2 158.3 -190.3 138.2C-212.4 118.2 -253.2 109.6 -272.4 88.5C-291.5 67.4 -288.9 33.7 -286.4 0L0 0Z" fill="#569fe5"></path><path d="M0 190.9C-15.2 173.6 -30.5 156.4 -48.5 149.1C-66.4 141.9 -87.1 144.7 -98.5 135.6C-109.9 126.5 -112.1 105.5 -126.9 92.2C-141.6 78.8 -168.8 73.1 -181.6 59C-194.3 44.9 -192.6 22.5 -190.9 0L0 0Z" fill="#668fdc"></path><path d="M0 95.5C-7.6 86.8 -15.2 78.2 -24.2 74.6C-33.2 70.9 -43.5 72.3 -49.3 67.8C-55 63.2 -56.1 52.8 -63.4 46.1C-70.8 39.4 -84.4 36.5 -90.8 29.5C-97.2 22.5 -96.3 11.2 -95.5 0L0 0Z" fill="#6e87d6"></path></g><g transform="translate(0, 900)"><path d="M0 -477.3C50.7 -473.5 101.5 -469.7 147.5 -453.9C193.5 -438.2 234.7 -410.6 275.1 -378.6C315.4 -346.7 354.9 -310.4 364.9 -265.1C374.8 -219.8 355.2 -165.6 369 -119.9C382.8 -74.2 430.1 -37.1 477.3 0L0 0Z" fill="#46bced"></path><path d="M0 -381.8C40.6 -378.8 81.2 -375.7 118 -363.1C154.8 -350.6 187.8 -328.5 220.1 -302.9C252.4 -277.3 283.9 -248.3 291.9 -212.1C299.8 -175.9 284.2 -132.5 295.2 -95.9C306.3 -59.4 344 -29.7 381.8 0L0 0Z" fill="#4aaeeb"></path><path d="M0 -286.4C30.4 -284.1 60.9 -281.8 88.5 -272.4C116.1 -262.9 140.8 -246.3 165.1 -227.2C189.3 -208 213 -186.2 218.9 -159.1C224.9 -131.9 213.1 -99.3 221.4 -71.9C229.7 -44.5 258 -22.3 286.4 0L0 0Z" fill="#569fe5"></path><path d="M0 -190.9C20.3 -189.4 40.6 -187.9 59 -181.6C77.4 -175.3 93.9 -164.2 110 -151.4C126.2 -138.7 142 -124.1 145.9 -106C149.9 -87.9 142.1 -66.2 147.6 -48C153.1 -29.7 172 -14.8 190.9 0L0 0Z" fill="#668fdc"></path><path d="M0 -95.5C10.1 -94.7 20.3 -93.9 29.5 -90.8C38.7 -87.6 46.9 -82.1 55 -75.7C63.1 -69.3 71 -62.1 73 -53C75 -44 71 -33.1 73.8 -24C76.6 -14.8 86 -7.4 95.5 0L0 0Z" fill="#6e87d6"></path></g></svg>