<svg id="visual" viewBox="0 0 1920 200" width="1920" height="200" xmlns="http://www.w3.org/2000/svg" xmlns:xlink="http://www.w3.org/1999/xlink" version="1.1"><path d="M0 147L24.7 140.7C49.3 134.3 98.7 121.7 147.8 116.8C197 112 246 115 295.2 121.5C344.3 128 393.7 138 443 130.2C492.3 122.3 541.7 96.7 590.8 89C640 81.3 689 91.7 738.2 95.3C787.3 99 836.7 96 886 105.2C935.3 114.3 984.7 135.7 1034 129.3C1083.3 123 1132.7 89 1181.8 91.3C1231 93.7 1280 132.3 1329.2 149.8C1378.3 167.3 1427.7 163.7 1477 142.8C1526.3 122 1575.7 84 1624.8 78.7C1674 73.3 1723 100.7 1772.2 114C1821.3 127.3 1870.7 126.7 1895.3 126.3L1920 126L1920 0L1895.3 0C1870.7 0 1821.3 0 1772.2 0C1723 0 1674 0 1624.8 0C1575.7 0 1526.3 0 1477 0C1427.7 0 1378.3 0 1329.2 0C1280 0 1231 0 1181.8 0C1132.7 0 1083.3 0 1034 0C984.7 0 935.3 0 886 0C836.7 0 787.3 0 738.2 0C689 0 640 0 590.8 0C541.7 0 492.3 0 443 0C393.7 0 344.3 0 295.2 0C246 0 197 0 147.8 0C98.7 0 49.3 0 24.7 0L0 0Z" fill="#48c6ef"></path><path d="M0 93L24.7 86.3C49.3 79.7 98.7 66.3 147.8 66C197 65.7 246 78.3 295.2 75.8C344.3 73.3 393.7 55.7 443 61.5C492.3 67.3 541.7 96.7 590.8 97.8C640 99 689 72 738.2 63.5C787.3 55 836.7 65 886 76C935.3 87 984.7 99 1034 104.5C1083.3 110 1132.7 109 1181.8 108.3C1231 107.7 1280 107.3 1329.2 95.5C1378.3 83.7 1427.7 60.3 1477 62.5C1526.3 64.7 1575.7 92.3 1624.8 106.2C1674 120 1723 120 1772.2 109.8C1821.3 99.7 1870.7 79.3 1895.3 69.2L1920 59L1920 0L1895.3 0C1870.7 0 1821.3 0 1772.2 0C1723 0 1674 0 1624.8 0C1575.7 0 1526.3 0 1477 0C1427.7 0 1378.3 0 1329.2 0C1280 0 1231 0 1181.8 0C1132.7 0 1083.3 0 1034 0C984.7 0 935.3 0 886 0C836.7 0 787.3 0 738.2 0C689 0 640 0 590.8 0C541.7 0 492.3 0 443 0C393.7 0 344.3 0 295.2 0C246 0 197 0 147.8 0C98.7 0 49.3 0 24.7 0L0 0Z" fill="#4ea8e9"></path><path d="M0 60L24.7 52.5C49.3 45 98.7 30 147.8 23.7C197 17.3 246 19.7 295.2 28.5C344.3 37.3 393.7 52.7 443 57.2C492.3 61.7 541.7 55.3 590.8 54.8C640 54.3 689 59.7 738.2 57.8C787.3 56 836.7 47 886 44.2C935.3 41.3 984.7 44.7 1034 40.3C1083.3 36 1132.7 24 1181.8 26.5C1231 29 1280 46 1329.2 56.5C1378.3 67 1427.7 71 1477 62.7C1526.3 54.3 1575.7 33.7 1624.8 22.3C1674 11 1723 9 1772.2 16.2C1821.3 23.3 1870.7 39.7 1895.3 47.8L1920 56L1920 0L1895.3 0C1870.7 0 1821.3 0 1772.2 0C1723 0 1674 0 1624.8 0C1575.7 0 1526.3 0 1477 0C1427.7 0 1378.3 0 1329.2 0C1280 0 1231 0 1181.8 0C1132.7 0 1083.3 0 1034 0C984.7 0 935.3 0 886 0C836.7 0 787.3 0 738.2 0C689 0 640 0 590.8 0C541.7 0 492.3 0 443 0C393.7 0 344.3 0 295.2 0C246 0 197 0 147.8 0C98.7 0 49.3 0 24.7 0L0 0Z" fill="#6f87d6"></path></svg>